HIERARCHY
ROOT Hips
{
	OFFSET -0.001795 -0.223333 0.028219
	CHANNELS 6 Xposition Yposition Zposition Zrotation Yrotation Xrotation 
	JOINT LeftUpLeg
	{
		OFFSET 0.069520 -0.091406 -0.006815
		CHANNELS 3 Zrotation Yrotation Xrotation
		JOINT LeftLeg
		{
			OFFSET 0.034277 -0.375199 -0.004496
			CHANNELS 3 Zrotation Yrotation Xrotation
			JOINT LeftFoot
			{
				OFFSET -0.013596 -0.397961 -0.043693
				CHANNELS 3 Zrotation Yrotation Xrotation
				JOINT LeftToe
				{
					OFFSET 0.026358 -0.055791 0.119288
					CHANNELS 3 Zrotation Yrotation Xrotation
					End Site
					{
						OFFSET 0.000000 0.000000 0.000000
					}
				}
			}
		}
	}
	JOINT RightUpLeg
	{
		OFFSET -0.067670 -0.090522 -0.004320
		CHANNELS 3 Zrotation Yrotation Xrotation
		JOINT RightLeg
		{
			OFFSET -0.038290 -0.382569 -0.008850
			CHANNELS 3 Zrotation Yrotation Xrotation
			JOINT RightFoot
			{
				OFFSET 0.015774 -0.398415 -0.042312
				CHANNELS 3 Zrotation Yrotation Xrotation
				JOINT RightToe
				{
					OFFSET -0.025372 -0.048144 0.123348
					CHANNELS 3 Zrotation Yrotation Xrotation
					End Site
					{
						OFFSET 0.000000 0.000000 0.000000
					}
				}
			}
		}
	}
	JOINT Spine
	{
		OFFSET -0.002533 0.108963 -0.026696
		CHANNELS 3 Zrotation Yrotation Xrotation
		JOINT Spine1
		{
			OFFSET 0.005487 0.135180 0.001092
			CHANNELS 3 Zrotation Yrotation Xrotation
			JOINT Spine2
			{
				OFFSET 0.001457 0.052922 0.025425
				CHANNELS 3 Zrotation Yrotation Xrotation
				JOINT Neck
				{
					OFFSET -0.002778 0.213870 -0.042857
					CHANNELS 3 Zrotation Yrotation Xrotation
					JOINT Head
					{
						OFFSET 0.005152 0.064970 0.051349
						CHANNELS 3 Zrotation Yrotation Xrotation
						End Site
						{
							OFFSET 0.000000 0.000000 0.000000
						}
					}
				}
				JOINT LeftShoulder
				{
					OFFSET 0.078845 0.121749 -0.034090
					CHANNELS 3 Zrotation Yrotation Xrotation
					JOINT LeftArm
					{
						OFFSET 0.090977 0.030469 -0.008868
						CHANNELS 3 Zrotation Yrotation Xrotation
						JOINT LeftForeArm
						{
							OFFSET 0.259612 -0.012772 -0.027456
							CHANNELS 3 Zrotation Yrotation Xrotation
							JOINT LeftHand
							{
								OFFSET 0.249234 0.008986 -0.001171
								CHANNELS 3 Zrotation Yrotation Xrotation
								End Site
								{
									OFFSET 0.000000 0.000000 0.000000
								}
							}
						}
					}
				}
				JOINT RightShoulder
				{
					OFFSET -0.081759 0.118833 -0.038615
					CHANNELS 3 Zrotation Yrotation Xrotation
					JOINT RightArm
					{
						OFFSET -0.096012 0.032551 -0.009143
						CHANNELS 3 Zrotation Yrotation Xrotation
						JOINT RightForeArm
						{
							OFFSET -0.253742 -0.013329 -0.021401
							CHANNELS 3 Zrotation Yrotation Xrotation
							JOINT RightHand
							{
								OFFSET -0.255298 0.007772 -0.005559
								CHANNELS 3 Zrotation Yrotation Xrotation
								End Site
								{
									OFFSET 0.000000 0.000000 0.000000
								}
							}
						}
					}
				}
			}
		}
	}
}
MOTION
Frames: 15
Frame Time: 0.050000
0.000000 0.924475 0.000000 -0.148088 2.113248 9.260949 5.111702 -0.544770 -7.382573 -1.266491 -0.064440 7.773291 6.187757 12.743311 -0.695108 0.000000 0.000000 0.000000 0.281393 2.160472 -21.860265 -0.656899 0.619401 13.034350 4.982034 14.330048 -1.380570 0.000000 0.000000 0.000000 6.375743 -0.849546 5.920733 1.594252 -0.741029 -0.143401 -4.885812 -3.274334 10.714166 14.144212 -8.173394 -14.602892 0.000000 0.000000 0.000000 -18.482462 -9.750460 4.152206 -52.676083 -7.748457 -3.481083 -11.448852 -33.239480 5.005711 0.000000 0.000000 0.000000 17.932906 -0.159481 -2.002409 57.221613 5.106088 -3.562122 13.960814 46.722304 7.577202 0.000000 0.000000 0.000000 
-0.003823 0.922622 -0.006230 -0.782197 0.934950 10.388393 6.961976 -0.524764 -8.099398 -2.804783 0.219413 7.570353 7.334603 15.236889 -0.142725 0.000000 0.000000 0.000000 1.199204 2.543351 -23.756311 -1.229643 0.840244 14.413671 6.677125 18.385143 -0.605225 0.000000 0.000000 0.000000 7.860666 -1.315072 8.531891 0.940874 -0.471716 0.866631 -4.661859 -5.609043 9.608618 14.360929 -8.871998 -12.597006 0.000000 0.000000 0.000000 -18.929848 -9.994975 5.165539 -51.396716 -10.558851 -2.318204 -9.034778 -36.376759 5.001361 0.000000 0.000000 0.000000 15.615579 0.109009 -2.297160 58.287897 4.363730 -3.868483 19.055189 48.272249 9.406795 0.000000 0.000000 0.000000 
-0.007474 0.920783 -0.013247 -0.462575 0.181246 11.704749 7.790459 -0.543963 -9.634472 -3.842829 0.413296 9.077493 6.554485 13.562915 -1.284457 0.000000 0.000000 0.000000 1.674603 3.041478 -27.180209 -1.363354 1.028096 17.020980 5.927601 17.092406 -1.253149 0.000000 0.000000 0.000000 8.212721 -1.757905 11.733903 1.786043 -0.851822 0.687825 -5.797631 -7.292084 9.577930 12.756599 -7.642524 -13.939329 0.000000 0.000000 0.000000 -19.162624 -11.784603 6.818124 -49.861192 -16.855160 0.175023 -3.927540 -34.432241 3.242051 0.000000 0.000000 0.000000 16.329413 0.810804 -2.537293 58.657458 3.646425 -4.151766 17.974626 50.611841 8.970188 0.000000 0.000000 0.000000 
-0.011193 0.920141 -0.019700 -0.074132 -1.180861 13.558970 8.302180 -0.563754 -11.932373 -5.026860 0.690341 10.425316 7.973324 16.649951 -1.247129 0.000000 0.000000 0.000000 1.309843 3.353576 -29.818011 -1.025811 1.011325 17.513480 7.831681 20.724003 0.496881 0.000000 0.000000 0.000000 8.614724 -2.155102 14.323536 1.536121 -0.701595 0.218068 -5.716483 -9.001445 9.389644 11.645202 -7.199327 -13.071506 0.000000 0.000000 0.000000 -21.066854 -14.325425 9.486447 -46.987889 -21.180516 1.458635 1.413065 -35.038586 1.779020 0.000000 0.000000 0.000000 16.764683 1.896586 -2.725064 57.738154 2.965964 -4.222486 21.185177 54.180118 10.611968 0.000000 0.000000 0.000000 
-0.014704 0.917790 -0.024597 0.757112 -1.943871 15.006204 7.479964 -0.650214 -13.318318 -5.241371 0.779281 11.637436 8.569769 17.996935 0.683304 0.000000 0.000000 0.000000 0.263387 3.495030 -32.551729 -0.921756 1.067587 18.610079 7.702527 20.537061 0.502256 0.000000 0.000000 0.000000 8.495048 -2.388097 16.385317 3.240842 -1.512721 1.163507 -7.183699 -11.378086 8.012896 10.125845 -6.312360 -12.870101 0.000000 0.000000 0.000000 -23.063825 -17.188432 12.578703 -41.551750 -26.175364 2.473005 7.839085 -31.880375 -0.214545 0.000000 0.000000 0.000000 17.483645 4.617844 -2.197866 56.625636 2.426150 -3.978213 22.311968 56.042097 10.855177 0.000000 0.000000 0.000000 
-0.018372 0.915868 -0.026193 1.127523 -2.013041 16.316257 7.780863 -0.671530 -14.280200 -5.436162 0.837055 12.234823 8.921993 18.736393 0.425401 0.000000 0.000000 0.000000 -0.127108 3.569483 -34.043264 -0.521679 0.976381 18.926670 7.765774 20.999963 0.323905 0.000000 0.000000 0.000000 8.788746 -2.645323 17.681908 3.633376 -1.667762 0.953739 -7.529011 -13.225066 7.547522 8.244723 -5.384770 -11.321873 0.000000 0.000000 0.000000 -24.625860 -19.561682 15.376716 -36.783445 -30.885507 3.015725 12.174578 -27.690583 -1.255600 0.000000 0.000000 0.000000 18.019652 5.081408 -2.620620 55.218742 1.320640 -4.090479 25.205782 57.361726 12.168233 0.000000 0.000000 0.000000 
-0.021874 0.913875 -0.024748 1.588176 -2.366182 16.585557 7.652691 -0.666162 -13.603451 -5.202624 0.773188 11.234282 8.947958 18.788525 2.200226 0.000000 0.000000 0.000000 -0.514315 3.562838 -34.560348 -0.312163 0.936639 19.029401 8.083265 21.676726 0.556181 0.000000 0.000000 0.000000 8.580200 -2.754917 19.133864 4.289063 -1.979656 1.289767 -8.454840 -14.888378 7.136903 6.757704 -4.599559 -10.243370 0.000000 0.000000 0.000000 -25.198894 -20.959330 17.112835 -32.206443 -33.611835 2.839779 15.970063 -24.020041 -1.886051 0.000000 0.000000 0.000000 19.426232 6.918876 -2.509621 53.954643 0.875478 -3.788976 27.055295 58.681110 13.070080 0.000000 0.000000 0.000000 
-0.024964 0.913132 -0.021317 1.562148 -2.771793 16.247925 8.219235 -0.603417 -13.089849 -5.214032 0.809932 12.071757 8.689221 18.287287 1.390692 0.000000 0.000000 0.000000 -0.433752 3.606097 -34.415377 0.128501 0.882941 19.973210 7.756917 21.520990 -0.082840 0.000000 0.000000 0.000000 8.501516 -2.857868 20.455677 4.318613 -2.035247 2.090488 -8.365071 -15.318646 6.158440 5.406436 -3.773399 -9.423864 0.000000 0.000000 0.000000 -24.626722 -22.826018 18.349107 -29.614422 -35.358004 2.832021 17.500801 -20.994073 -1.940291 0.000000 0.000000 0.000000 20.487573 7.055805 -2.855851 52.477341 1.061987 -3.311144 28.975494 59.951204 14.402106 0.000000 0.000000 0.000000 
-0.027722 0.912882 -0.017360 1.884934 -2.337835 16.194403 8.405820 -0.601782 -12.907124 -5.389706 0.842413 12.418780 8.529211 17.966510 1.583290 0.000000 0.000000 0.000000 -0.474729 3.521839 -34.172166 -0.048184 0.920764 20.162392 7.593015 21.416901 -0.433061 0.000000 0.000000 0.000000 8.563032 -2.914910 20.662027 4.456094 -2.099123 1.980443 -8.751324 -15.554434 6.305887 4.389581 -3.136150 -9.278796 0.000000 0.000000 0.000000 -25.529903 -23.741429 19.309975 -26.917369 -36.224083 2.391002 18.322398 -19.238216 -1.931206 0.000000 0.000000 0.000000 21.071941 7.849081 -2.564247 51.580431 1.427635 -2.976315 29.324755 60.068646 14.701761 0.000000 0.000000 0.000000 
-0.029903 0.913682 -0.013888 1.975404 -1.656303 16.078219 9.101449 -0.574596 -13.010000 -5.783279 0.947654 13.900247 8.084545 17.076067 1.382001 0.000000 0.000000 0.000000 -0.398781 3.447715 -33.928042 0.347933 0.801195 20.642963 7.032779 20.267659 -0.900327 0.000000 0.000000 0.000000 8.422311 -2.940875 20.927666 4.797551 -2.304065 2.474636 -8.605432 -14.478318 5.741261 3.578951 -2.539683 -8.645653 0.000000 0.000000 0.000000 -26.024325 -25.015346 19.847800 -25.969324 -36.931444 2.406556 18.210025 -18.363323 -1.848648 0.000000 0.000000 0.000000 20.819408 7.732080 -2.092916 51.003802 1.907701 -2.809618 29.184277 61.751763 15.562821 0.000000 0.000000 0.000000 
-0.031264 0.914640 -0.010965 2.427973 -0.542451 16.018506 9.436975 -0.592619 -14.206317 -6.074047 1.029670 16.079025 7.447320 15.854837 1.820682 0.000000 0.000000 0.000000 -0.658794 3.280179 -33.991923 0.551247 0.717064 21.438350 6.357618 18.807273 -1.436758 0.000000 0.000000 0.000000 8.555693 -2.982755 20.565761 4.476959 -2.178723 2.555246 -8.801289 -13.322184 5.993458 3.566549 -2.458224 -8.678267 0.000000 0.000000 0.000000 -25.686883 -25.762986 19.520790 -26.905530 -37.356724 2.866381 18.346977 -19.107742 -1.953895 0.000000 0.000000 0.000000 21.196229 7.342416 -1.799380 50.177160 2.852488 -2.496558 28.241709 62.547498 15.858020 0.000000 0.000000 0.000000 
-0.031436 0.915559 -0.008364 2.705816 1.540991 15.391961 10.213414 -0.599055 -15.149438 -6.631166 1.135559 18.764072 6.435208 13.710496 0.723736 0.000000 0.000000 0.000000 -0.838947 2.985657 -33.434581 0.911563 0.521568 22.350845 5.079094 16.034320 -2.571935 0.000000 0.000000 0.000000 8.381622 -2.932413 19.888814 4.570204 -2.253009 2.350007 -8.728740 -11.594032 6.894393 3.960457 -2.623963 -8.662313 0.000000 0.000000 0.000000 -27.082451 -26.838146 19.693638 -27.226363 -37.072142 2.952561 17.582405 -20.529478 -2.021048 0.000000 0.000000 0.000000 19.990553 7.325156 -0.687357 50.229052 3.921850 -2.476467 25.925798 64.740122 16.015553 0.000000 0.000000 0.000000 
-0.030363 0.917347 -0.005426 3.146772 3.958859 15.079117 10.381475 -0.682155 -16.410346 -6.487605 0.975699 20.612266 6.039414 13.060348 1.510246 0.000000 0.000000 0.000000 -1.414020 2.599474 -33.330379 1.295488 0.268630 23.608046 4.463248 13.964645 -2.521297 0.000000 0.000000 0.000000 8.616126 -2.927744 18.763809 3.886940 -1.965671 2.279460 -8.552189 -9.828845 7.482910 4.217619 -2.591025 -9.481778 0.000000 0.000000 0.000000 -26.450465 -26.346832 17.881763 -31.102139 -35.632839 3.748416 17.115677 -24.753574 -2.361695 0.000000 0.000000 0.000000 19.740598 6.776766 -0.034467 49.849476 5.208811 -2.246077 21.417235 66.414919 14.629846 0.000000 0.000000 0.000000 
-0.027608 0.919830 -0.002369 3.612216 6.830211 14.453339 10.316551 -0.792765 -16.635812 -6.654820 0.827130 21.422711 5.649385 12.354917 1.804110 0.000000 0.000000 0.000000 -2.092636 2.101151 -32.425988 1.544467 -0.012708 23.765011 3.732746 11.614253 -2.494643 0.000000 0.000000 0.000000 8.730833 -2.882180 17.661337 3.645869 -1.816924 1.362687 -8.371338 -7.805924 8.772044 4.544067 -2.570981 -10.062172 0.000000 0.000000 0.000000 -28.257500 -25.740010 16.500912 -32.006510 -32.238403 3.262340 14.065625 -30.137668 -2.212503 0.000000 0.000000 0.000000 18.408209 6.092931 0.756079 50.290827 6.466108 -2.175469 19.519688 67.457907 14.898057 0.000000 0.000000 0.000000 
-0.023662 0.923211 0.000782 3.977767 10.076711 14.043407 10.547926 -0.906228 -16.948590 -6.249279 0.496006 21.187797 5.290576 12.044814 3.155822 0.000000 0.000000 0.000000 -2.624930 1.619097 -30.967847 1.850785 -0.335091 23.060557 2.820735 8.677150 -2.222006 0.000000 0.000000 0.000000 8.881835 -2.741907 15.908293 2.813691 -1.449866 1.259329 -7.614945 -6.050677 8.929584 5.214809 -2.739313 -10.470071 0.000000 0.000000 0.000000 -27.326375 -24.160700 13.647862 -36.252837 -28.473216 3.351521 10.472490 -36.072615 -1.687537 0.000000 0.000000 0.000000 18.087519 5.083952 1.147789 49.631818 6.750863 -2.276519 17.274053 68.036740 14.719381 0.000000 0.000000 0.000000 
